<?xml version="1.0" standalone="no"?>
<!DOCTYPE svg PUBLIC "-//W3C//DTD SVG 20010904//EN"
 "http://www.w3.org/TR/2001/REC-SVG-20010904/DTD/svg10.dtd">
<svg version="1.0" xmlns="http://www.w3.org/2000/svg"
 width="310.000000pt" height="310.000000pt" viewBox="0 0 310.000000 310.000000"
 preserveAspectRatio="xMidYMid meet">
<metadata>
Created by potrace 1.11, written by Peter Selinger 2001-2013
</metadata>
<g transform="translate(0.000000,310.000000) scale(0.100000,-0.100000)"
fill="#000000" stroke="none">
<path d="M1341 2774 c-448 -75 -839 -424 -967 -863 -108 -370 -48 -748 169
-1071 102 -152 338 -354 473 -406 40 -15 45 -15 81 2 57 28 63 48 63 225 0
163 4 179 45 179 42 0 45 -13 45 -236 0 -206 1 -214 23 -239 27 -32 71 -43
212 -51 122 -7 281 8 326 31 43 23 49 44 49 163 0 96 2 111 20 127 16 15 25
16 44 7 21 -9 24 -18 28 -82 3 -66 6 -75 36 -101 41 -36 68 -36 140 0 206 105
409 315 521 539 39 78 84 212 107 317 24 112 24 350 1 468 -76 382 -323 709
-665 881 -219 110 -502 152 -751 110z m464 -214 c404 -110 698 -440 762 -855
43 -279 -42 -588 -222 -812 -59 -73 -187 -193 -207 -193 -4 0 -14 12 -22 28
-56 108 -211 149 -326 86 -51 -28 -99 -84 -115 -133 -4 -13 -10 -56 -14 -95
l-6 -71 -102 -3 -103 -3 0 154 c0 174 -12 231 -61 290 -86 104 -257 114 -353
21 -54 -53 -69 -89 -75 -187 l-6 -89 -70 59 c-152 128 -278 328 -332 528 -24
89 -27 118 -27 265 0 146 3 176 26 261 105 389 401 674 788 760 119 26 350 21
465 -11z"/>
<path d="M1290 2383 c-8 -3 -124 -114 -258 -247 -245 -244 -272 -278 -257
-328 18 -58 81 -90 134 -68 37 15 506 498 514 529 8 31 -14 84 -44 105 -23 16
-59 20 -89 9z"/>
<path d="M1335 2011 c-16 -10 -69 -59 -117 -108 -84 -86 -88 -92 -88 -135 0
-59 35 -98 89 -98 51 1 69 13 171 123 100 106 112 136 76 191 -30 47 -82 58
-131 27z"/>
<path d="M818 1285 c-37 -21 -48 -44 -48 -105 0 -44 5 -56 29 -81 43 -42 112
-37 148 10 32 43 21 135 -20 169 -24 20 -79 24 -109 7z"/>
</g>
</svg>
